<svg width="50" height="49" viewBox="0 0 50 49" fill="none" xmlns="http://www.w3.org/2000/svg">
<path d="M48.3921 10.7178V43.8575C48.3921 45.9947 46.6591 47.7258 44.5238 47.7258H5.47719C3.34189 47.7258 1.60889 45.9947 1.60889 43.8575V10.7178C1.60889 8.58055 3.34189 6.84949 5.47719 6.84949H44.5238C46.6591 6.84949 48.3921 8.58055 48.3921 10.7178Z" fill="#CBFF38"/>
<path d="M13.0272 11.5244H11.2254C10.6914 11.5244 10.2583 11.0914 10.2583 10.5574V2.24051C10.2583 1.70649 10.6914 1.27344 11.2254 1.27344H13.0272C13.5612 1.27344 13.9943 1.70649 13.9943 2.24051V10.5574C13.9943 11.0914 13.5612 11.5244 13.0272 11.5244Z" fill="#5F8B00"/>
<path d="M38.7753 11.5244H36.9734C36.4394 11.5244 36.0063 11.0914 36.0063 10.5574V2.24051C36.0063 1.70649 36.4394 1.27344 36.9734 1.27344H38.7753C39.3093 1.27344 39.7424 1.70649 39.7424 2.24051V10.5574C39.7424 11.0914 39.3095 11.5244 38.7753 11.5244Z" fill="#5F8B00"/>
<path d="M48.3921 10.7178V43.8575C48.3921 45.9947 46.6591 47.7258 44.5238 47.7258H41.6226C43.7579 47.7258 45.4909 45.9947 45.4909 43.8575V10.7178C45.4909 8.58055 43.7579 6.84949 41.6226 6.84949H44.5238C46.6591 6.84949 48.3921 8.58055 48.3921 10.7178Z" fill="#CBFF38"/>
<path d="M48.3921 15.911V43.8575C48.3921 45.9948 46.6591 47.7258 44.5238 47.7258H5.47719C3.34189 47.7258 1.60889 45.9948 1.60889 43.8575V15.911H48.3921Z" fill="#CBFF38"/>
<path d="M19.6578 29.2948H16.6047V26.2418C16.6047 25.0155 15.6107 24.0214 14.3843 24.0214C13.1579 24.0214 12.1639 25.0153 12.1639 26.2418V29.2948H9.11103C7.88478 29.2948 6.89062 30.2888 6.89062 31.5152C6.89062 32.7415 7.88458 33.7356 9.11103 33.7356H12.1641V36.7887C12.1641 38.0149 13.158 39.0091 14.3845 39.0091C15.6109 39.0091 16.6049 38.0151 16.6049 36.7887V33.7354H19.6579C20.8842 33.7354 21.8784 32.7415 21.8784 31.515C21.878 30.2888 20.884 29.2948 19.6578 29.2948Z" fill="#CBFF38"/>
<path d="M44.5235 6.07615H40.5158V2.24074C40.5158 1.28082 39.735 0.5 38.7751 0.5H36.9734C36.0135 0.5 35.2327 1.28082 35.2327 2.24074V6.07615H14.7676V2.24074C14.7676 1.28082 13.9866 0.5 13.0269 0.5H11.2252C10.2655 0.5 9.48448 1.28082 9.48448 2.24074V6.07615H5.47692C2.91746 6.07615 0.834961 8.15865 0.834961 10.7181V43.858C0.834961 46.4175 2.91746 48.5 5.47692 48.5H44.5235C47.083 48.5 49.1655 46.4175 49.1655 43.858V10.7181C49.1655 8.15846 47.0832 6.07615 44.5235 6.07615ZM36.78 2.24074C36.78 2.13397 36.8666 2.04732 36.9734 2.04732H38.7751C38.8818 2.04732 38.9685 2.13397 38.9685 2.24074V10.5576C38.9685 10.6643 38.8818 10.751 38.7751 10.751H36.9734C36.8666 10.751 36.78 10.6643 36.78 10.5576V2.24074ZM11.0318 2.24074C11.0318 2.13397 11.1186 2.04732 11.2252 2.04732H13.0269C13.1334 2.04732 13.2203 2.13397 13.2203 2.24074V10.5576C13.2203 10.6643 13.1334 10.751 13.0269 10.751H11.2252C11.1186 10.751 11.0318 10.6643 11.0318 10.5576V2.24074ZM47.6182 43.8578C47.6182 45.5642 46.2299 46.9525 44.5235 46.9525H5.47692C3.77061 46.9525 2.38228 45.5642 2.38228 43.8578V16.6857H47.6182V43.8578ZM47.6182 15.1384H2.38228V10.7181C2.38228 9.01181 3.77061 7.62347 5.47692 7.62347H9.48448V10.5576C9.48448 11.5175 10.2655 12.2983 11.2252 12.2983H13.0269C13.9866 12.2983 14.7676 11.5175 14.7676 10.5576V7.62347H35.2327V10.5576C35.2327 11.5175 36.0135 12.2983 36.9734 12.2983H38.7751C39.735 12.2983 40.5158 11.5175 40.5158 10.5576V7.62347H44.5235C46.2299 7.62347 47.6182 9.01181 47.6182 10.7181V15.1384Z" fill="#5F8B00"/>
<path d="M26.1646 30.4429H28.2933C29.1293 30.4429 29.8095 29.7627 29.8095 28.9266V26.798C29.8095 25.9621 29.1293 25.2819 28.2933 25.2819H26.1646C25.3287 25.2819 24.6484 25.9621 24.6484 26.798V28.9266C24.6484 29.7627 25.3287 30.4429 26.1646 30.4429Z" fill="#5F8B00"/>
<path d="M34.8773 30.4429H32.7488C31.9127 30.4429 31.2324 29.7627 31.2324 28.9266V26.798C31.2324 25.9621 31.9127 25.2819 32.7488 25.2819H34.8773C35.7133 25.2819 36.3935 25.9621 36.3935 26.798V28.9266C36.3935 29.7627 35.7133 30.4429 34.8773 30.4429Z" fill="#5F8B00"/>
<path d="M39.3323 30.4429H41.4608C42.2968 30.4429 42.977 29.7627 42.977 28.9266V26.798C42.977 25.9621 42.2968 25.2819 41.4608 25.2819H39.3323C38.4962 25.2819 37.8159 25.9621 37.8159 26.798V28.9266C37.8159 29.7627 38.4962 30.4429 39.3323 30.4429Z" fill="#5F8B00"/>
<path d="M28.2933 37.7485H26.1646C25.3287 37.7485 24.6484 37.0682 24.6484 36.2323V34.1036C24.6484 33.2676 25.3287 32.5874 26.1646 32.5874H28.2933C29.1293 32.5874 29.8095 33.2676 29.8095 34.1036V36.2323C29.8095 37.0682 29.1293 37.7485 28.2933 37.7485Z" fill="#5F8B00"/>
<path d="M34.8773 37.7485H32.7488C31.9127 37.7485 31.2324 37.0682 31.2324 36.2323V34.1036C31.2324 33.2676 31.9127 32.5874 32.7488 32.5874H34.8773C35.7133 32.5874 36.3935 33.2676 36.3935 34.1036V36.2323C36.3935 37.0682 35.7133 37.7485 34.8773 37.7485Z" fill="#5F8B00"/>
<path d="M39.3323 37.7485H41.4608C42.2968 37.7485 42.977 37.0682 42.977 36.2323V34.1036C42.977 33.2676 42.2968 32.5874 41.4608 32.5874H39.3323C38.4962 32.5874 37.8159 33.2676 37.8159 34.1036V36.2323C37.8159 37.0682 38.4962 37.7485 39.3323 37.7485Z" fill="#5F8B00"/>
<path d="M9.53496 33.9723H11.465V35.9021C11.465 37.3001 12.6022 38.4373 13.9999 38.4373C15.3977 38.4373 16.535 37.3001 16.535 35.9021V33.9723H18.465C19.863 33.9723 21 32.8351 21 31.4372C21 30.0394 19.8628 28.9022 18.465 28.9022H16.5352V26.9724C16.5352 25.5745 15.398 24.4373 14.0001 24.4373C12.6022 24.4373 11.4651 25.5745 11.4651 26.9724V28.9022H9.53496C8.13704 28.9022 7 30.0394 7 31.4372C7 32.8351 8.1372 33.9723 9.53496 33.9723Z" fill="#5F8B00"/>
</svg>
