<svg width="24" height="24" viewBox="0 0 24 24" fill="none" xmlns="http://www.w3.org/2000/svg">
<path fill-rule="evenodd" clip-rule="evenodd" d="M6.30762 11.9958V16.4384H10.7502V11.9958H6.30762ZM9.63956 15.3277V13.1064H7.41827V15.3277H9.63956Z" fill="black"/>
<path fill-rule="evenodd" clip-rule="evenodd" d="M9.08445 2C8.39679 1.99983 7.72592 2.21243 7.16388 2.60864C6.60183 3.00484 6.17614 3.56525 5.9452 4.21297H1.86523V5.59073L4.08653 7.27336V20.881H2.42056C2.27328 20.881 2.13203 20.9395 2.02789 21.0437C1.92374 21.1478 1.86523 21.2891 1.86523 21.4363C1.86523 21.5836 1.92374 21.7249 2.02789 21.829C2.13203 21.9332 2.27328 21.9917 2.42056 21.9917H4.08653V22H19.6356V21.9917H21.3016C21.4489 21.9917 21.5901 21.9332 21.6943 21.829C21.7984 21.7249 21.8569 21.5836 21.8569 21.4363C21.8569 21.2891 21.7984 21.1478 21.6943 21.0437C21.5901 20.9395 21.4489 20.881 21.3016 20.881H19.6356V7.29335L22.1346 5.61072V4.21241H12.2237C11.9927 3.5648 11.5669 3.00451 11.0049 2.60841C10.4429 2.21231 9.77204 1.99979 9.08445 2ZM12.227 6.44259C12.3527 6.08581 12.4168 5.71023 12.4164 5.33195V5.32362H20.5724L18.9109 6.44259H12.227ZM11.5679 7.55324C11.2553 7.90265 10.8726 8.18218 10.4447 8.37357C10.0167 8.56495 9.55323 8.66388 9.08445 8.66389C8.61567 8.66388 8.15216 8.56495 7.72423 8.37357C7.29629 8.18218 6.91356 7.90265 6.60104 7.55324H5.19718V20.881H11.8611V11.9958H17.4143V20.881H18.525V7.55324H11.5679ZM5.7525 5.33195C5.7525 5.72123 5.81914 6.09496 5.94187 6.44259H4.82844L3.35128 5.32362H5.7525V5.33195ZM9.63977 4.77662V3.66597H8.52912V4.77662H7.41848V5.88727H8.52912V6.99792H9.63977V5.88727H10.7504V4.77662H9.63977ZM16.3037 13.1065V20.881H12.9717V13.1065H16.3037Z" fill="#33373F"/>
</svg>
