<svg width="49" height="49" viewBox="0 0 49 49" fill="none" xmlns="http://www.w3.org/2000/svg">
<path d="M46.8125 16.8537H31.7267V1.76857H16.4354V16.8537H1.34962V32.1456H16.4354V47.2314H31.7267V32.1456H46.8125V16.8537Z" fill="#CBFF38"/>
<path d="M31.7273 48.5H16.4354C15.7352 48.5 15.1668 47.9317 15.1668 47.2314V33.4142H1.34962C0.649372 33.4142 0.0810547 32.8459 0.0810547 32.1456V16.8544C0.0810547 16.1541 0.649372 15.5858 1.34962 15.5858H15.1662V1.76857C15.1662 1.06832 15.7345 0.5 16.4348 0.5H31.7267C32.4269 0.5 32.9953 1.06832 32.9953 1.76857V15.5858H46.8119C47.5121 15.5858 48.0804 16.1541 48.0804 16.8544V32.1456C48.0804 32.8459 47.5121 33.4142 46.8119 33.4142H32.9953V47.2314C32.9959 47.9323 32.4276 48.5 31.7273 48.5ZM17.7033 45.9629H30.4581V32.1456C30.4581 31.4454 31.0265 30.8771 31.7267 30.8771H45.5433V18.1229H31.7267C31.0265 18.1229 30.4581 17.5546 30.4581 16.8544V3.03713H17.7033V16.8544C17.7033 17.5546 17.135 18.1229 16.4348 18.1229H2.61819V30.8771H16.4348C17.135 30.8771 17.7033 31.4454 17.7033 32.1456V45.9629Z" fill="#5F8B00"/>
</svg>
