<svg width="49" height="48" viewBox="0 0 49 48" fill="none" xmlns="http://www.w3.org/2000/svg">
<path d="M33.8083 45.4552C45.6576 40.547 51.2845 26.9628 46.3764 15.1139C41.4683 3.2651 27.8837 -2.36143 16.0345 2.54673C4.18528 7.4549 -1.44161 21.0391 3.46649 32.888C8.3746 44.7368 21.9591 50.3633 33.8083 45.4552Z" fill="#CBFF38"/>
<path d="M24.9187 0C11.685 0 0.918945 10.7664 0.918945 24C0.918945 37.2336 11.685 48 24.9187 48C38.1524 48 48.9189 37.2336 48.9189 24C48.9189 10.7664 38.1524 0 24.9187 0ZM24.9187 46.4433C12.5435 46.4433 2.47518 36.375 2.47518 23.9995C2.47518 11.6239 12.543 1.5557 24.9187 1.5557C37.2944 1.5557 47.3627 11.6239 47.3627 23.9995C47.3627 36.375 37.2944 46.4433 24.9187 46.4433Z" fill="#5F8B00"/>
<path d="M39.8891 13.8338C38.8397 12.6707 37.0459 12.5779 35.8824 13.6278L19.9263 28.0218L14.3705 20.1769C13.4648 18.8977 11.6938 18.5963 10.4161 19.5015C9.13743 20.4072 8.835 22.1777 9.74073 23.4559L17.1417 33.9059C17.6096 34.5673 18.3389 34.9968 19.144 35.086C19.2488 35.0974 19.3531 35.1031 19.4568 35.1031C20.1551 35.1031 20.8331 34.8453 21.357 34.3727L39.6832 17.8405C40.8462 16.7906 40.9386 14.9968 39.8891 13.8338Z" fill="#5F8B00"/>
<path d="M40.467 13.3124C39.8202 12.5955 38.9331 12.1733 37.9688 12.1235C37.0096 12.0742 36.0779 12.4031 35.3615 13.0494L20.0555 26.8572L15.0055 19.7266C14.4478 18.9387 13.6158 18.4153 12.6639 18.2529C11.7125 18.0895 10.7544 18.3084 9.9669 18.866C9.17892 19.4242 8.65551 20.2557 8.49263 21.2076C8.33026 22.1595 8.54761 23.1176 9.10682 23.9051L16.5072 34.3546C17.1028 35.197 18.0334 35.7453 19.0605 35.8589C19.1933 35.8734 19.3261 35.8807 19.4573 35.8807C20.3537 35.8807 21.2133 35.5503 21.8794 34.9501L40.2056 18.4173C41.6845 17.0821 41.8018 14.7919 40.467 13.3124ZM39.1619 17.2621L20.8362 33.7943C20.4004 34.1865 19.8106 34.3743 19.2296 34.3125C18.6455 34.2477 18.1159 33.9354 17.7761 33.4561L10.3752 23.0056C10.0572 22.5574 9.93266 22.0117 10.0255 21.4696C10.1184 20.928 10.4167 20.4539 10.8654 20.1364C11.2171 19.8874 11.6279 19.7578 12.0502 19.7578C12.1669 19.7578 12.2836 19.7676 12.4009 19.7873C12.9429 19.8802 13.4166 20.1779 13.7345 20.6272L19.2908 28.4721C19.4189 28.6536 19.6192 28.7714 19.8402 28.7958C20.0596 28.8212 20.2816 28.7491 20.4471 28.6002L36.4032 14.2062C36.812 13.8379 37.3442 13.648 37.8878 13.6786C38.4372 13.7067 38.9419 13.9474 39.3107 14.3556C40.0717 15.1975 40.0043 16.5016 39.1619 17.2621Z" fill="#5F8B00"/>
</svg>
